# xmcd CD database file
#
# Track frame offsets:
#	150
#	16150
#	18005
#	34362
#	36012
#	65267
#	66362
#	103282
#	104265
#	127455
#	128732
#	165067
#	167827
#	198002
#	230440
#	233187
#	261747
#
# Disc length: 3509 seconds
#
# Revision: 1
# Processed by: cddbd v1.4PL0 Copyright (c) Steve Scherf et al.
# Submitted via: CDex 1.51
#
DISCID=e60db311
DTITLE=Audiofact - Asitane
DYEAR=2003
DGENRE=Jazz
TTITLE0=AudioFact Anthem
TTITLE1=17:00 'sen hala uyu'
TTITLE2=My Ghetto in Asitane
TTITLE3=22:00 'Almasana kardesim!'
TTITLE4=Mr. Downtown
TTITLE5=05:00 'sabaha karsi'
TTITLE6=Sabah
TTITLE7=08:00 'rush hour'
TTITLE8=Face Collection
TTITLE9=12:00 'can not be reached at the moment'
TTITLE10=Jasmine
TTITLE11='nasr'
TTITLE12=Rainchaser
TTITLE13=Everytime the City Falls
TTITLE14=_
TTITLE15=Dere Geliyor Dere
TTITLE16=17:00
EXTD=YEAR: 2003
EXTT0=
EXTT1=
EXTT2=
EXTT3=
EXTT4=
EXTT5=
EXTT6=
EXTT7=
EXTT8=
EXTT9=
EXTT10=
EXTT11=
EXTT12=
EXTT13=
EXTT14=
EXTT15=
EXTT16=
PLAYORDER=
